<?xml version="1.0" encoding="UTF-8"?>
<svg width="137px" height="34px" viewBox="0 0 137 34" version="1.1" xmlns="http://www.w3.org/2000/svg" xmlns:xlink="http://www.w3.org/1999/xlink">
    <!-- Generator: Sketch 62 (91390) - https://sketch.com -->
    <title>FU-Logo--Blue-BG</title>
    <desc>Created with Sketch.</desc>
    <g id="Homepage-V1.0" stroke="none" stroke-width="1" fill="none" fill-rule="evenodd">
        <g id="Smaller-fonts-Copy-2" transform="translate(-65.000000, -33.000000)" fill="#FFFFFF" fill-rule="nonzero">
            <g id="FU-Logo--Blue-BG" transform="translate(65.000000, 33.000000)">
                <path d="M7.81542087,0.337428204 L7.81542087,0.337428204 L7.81542087,29.0674282 C7.81542087,31.1538373 6.12405215,32.845206 4.03764309,32.845206 L4.03764309,32.845206 C1.95123404,32.845206 0.259865316,31.1538373 0.259865316,29.0674282 L0.259865316,7.8300208 C0.259865316,3.69197617 3.61441328,0.337428204 7.75245791,0.337428204 L7.81542087,0.337428204 Z" id="Path" opacity="0.24" transform="translate(4.037643, 16.591317) rotate(-0.340000) translate(-4.037643, -16.591317) "></path>
                <g id="Group" opacity="0.75" transform="translate(0.000000, -0.000000)">
                    <path d="M26.5011111,7.70037037 L0.264229069,7.85777778 L0.264229069,7.85777778 C0.249364517,5.86676446 1.02671702,3.9514901 2.42513594,2.53417363 C3.82355486,1.11685716 5.72822289,0.31386746 7.71925926,0.302222222 L26.457037,0.195185185 C28.5215152,0.194952919 30.2038477,1.85205035 30.2348206,3.9162963 L30.2348206,3.9162963 C30.2384087,5.98806633 28.5727433,7.6762028 26.5011111,7.70037037 L26.5011111,7.70037037 Z" id="Path"></path>
                </g>
                <g id="Group" opacity="0.75" transform="translate(0.000000, 12.592593)">
                    <path d="M11.5851852,7.68777778 L0.34,7.75703704 L0.295925926,0.258148148 L11.5411111,0.195185185 C13.6055893,0.194952919 15.2879217,1.85205035 15.3188889,3.9162963 L15.3188889,3.9162963 C15.3155847,5.98316051 13.6519114,7.66366697 11.5851852,7.68777778 L11.5851852,7.68777778 Z" id="Path"></path>
                </g>
                <path d="M4.1368608,25.3266107 C6.20588312,25.3266107 7.8831571,27.0038847 7.8831571,29.072907 C7.8831571,31.1419293 6.20588312,32.8192033 4.1368608,32.8192033 C2.06783849,32.8192033 0.390564508,31.1419293 0.390564508,29.072907 C0.390564508,27.0038847 2.06783849,25.3266107 4.1368608,25.3266107 Z" id="Rectangle" transform="translate(4.136861, 29.072907) rotate(-0.340000) translate(-4.136861, -29.072907) "></path>
                <polygon id="Path" opacity="0.85" points="35.7881481 7.68777778 50.5718519 7.68777778 50.5718519 12.0951852 40.9888889 12.0951852 40.9888889 15.4511111 50.3703704 15.4511111 50.3703704 19.8585185 40.9888889 19.8585185 40.9888889 27.8674074 35.7881481 27.8674074"></polygon>
                <path d="M53.2603704,13.2222222 L57.9259259,13.2222222 L57.9259259,15.1111111 C59.0758902,13.7750368 60.7292949,12.9768415 62.4907407,12.9074074 L62.4907407,17.4092593 C62.1163765,17.3015905 61.7279861,17.2506541 61.3385185,17.2581481 C60.1296296,17.2581481 58.5303704,17.7744444 57.9259259,18.6181481 L57.9259259,27.8674074 L53.272963,27.8674074 L53.2603704,13.2222222 Z" id="Path" opacity="0.85"></path>
                <path d="M71.3937037,12.8885185 C75.712963,12.8885185 78.8548148,16.0366667 78.8548148,21.017037 L78.8548148,22.037037 L68.4596296,22.037037 C68.7303704,23.397037 70.0022222,24.6311111 72.1744444,24.6311111 C73.471891,24.6230226 74.729057,24.1795778 75.7444444,23.3718519 L77.7088889,26.2681481 C76.2544444,27.5714815 73.8366667,28.2074074 71.6014815,28.2074074 C67.0996296,28.2074074 63.6240741,25.2733333 63.6240741,20.5259259 C63.6009739,18.4702579 64.4165229,16.4939316 65.8826128,15.0527913 C67.3487027,13.6116511 69.3387349,12.8301411 71.3937037,12.8885185 Z M68.3966667,18.9896296 L74.4159259,18.9896296 C74.2599344,17.4685278 72.917999,16.3502484 71.3937037,16.4711111 C69.8905977,16.4000695 68.5855509,17.4967475 68.3966667,18.9896296 L68.3966667,18.9896296 Z" id="Shape" opacity="0.85"></path>
                <path d="M87.952963,12.8885185 C92.2722222,12.8885185 95.4203704,16.0366667 95.4203704,21.017037 L95.4203704,22.037037 L85,22.037037 C85.277037,23.397037 86.5425926,24.6311111 88.7211111,24.6311111 C90.016651,24.6230773 91.2718409,24.1795473 92.2848148,23.3718519 L94.2492593,26.2681481 C92.8011111,27.5714815 90.3833333,28.2074074 88.1481481,28.2074074 C83.64,28.2074074 80.1644444,25.2733333 80.1644444,20.5259259 C80.1411536,18.4668805 80.9592704,16.487531 82.4295214,15.0458055 C83.8997724,13.60408 85.894769,12.8248955 87.952963,12.8885185 L87.952963,12.8885185 Z M84.9622222,18.9896296 L90.9751852,18.9896296 C90.8256212,17.4651157 89.4794554,16.3433109 87.952963,16.4711111 C86.451177,16.4003624 85.1480769,17.4977099 84.9622222,18.9896296 Z" id="Shape" opacity="0.85"></path>
                <path d="M99.0911111,7.68777778 L104.386296,7.68777778 L104.386296,19.5185185 C104.386296,21.9048148 105.645556,23.63 108.466296,23.63 C111.287037,23.63 112.514815,21.9048148 112.514815,19.5185185 L112.514815,7.68777778 L117.803704,7.68777778 L117.803704,19.6507407 C117.803704,24.6877778 114.932593,28.2074074 108.466296,28.2074074 C102,28.2074074 99.0911111,24.6374074 99.0911111,19.6822222 L99.0911111,7.68777778 Z" id="Path"></path>
                <path d="M120.674815,33.4081481 L120.674815,13.2222222 L125.334074,13.2222222 L125.334074,14.9159259 C126.37917,13.6008916 127.97371,12.8431363 129.653333,12.8633333 C133.311481,12.8633333 136.062963,15.5833333 136.062963,20.507037 C136.062963,25.4307407 133.311481,28.1885185 129.653333,28.1885185 C127.966578,28.2025282 126.369641,27.4296666 125.334074,26.0981481 L125.334074,33.382963 L120.674815,33.4081481 Z M128.110741,17 C127.03643,17.0196787 126.023465,17.50434 125.334074,18.3285185 L125.334074,22.7737037 C126.032017,23.5867964 127.039697,24.0689291 128.110741,24.1022222 C129.924074,24.1022222 131.315556,22.7422222 131.315556,20.5322222 C131.315556,18.3222222 129.924074,17 128.110741,17 Z" id="Shape"></path>
            </g>
        </g>
    </g>
</svg>