<?xml version="1.0" encoding="utf-8"?>
<!-- Generator: Adobe Illustrator 25.0.0, SVG Export Plug-In . SVG Version: 6.00 Build 0)  -->
<svg version="1.1" id="Layer_1" xmlns="http://www.w3.org/2000/svg" xmlns:xlink="http://www.w3.org/1999/xlink" x="0px" y="0px"
	 width="600px" height="600px" viewBox="0 0 600 600" style="enable-background:new 0 0 600 600;" xml:space="preserve">
<style type="text/css">
	.st0{fill:#FFFFFF;}
	.st1{fill:#231F20;}
	.st2{fill:#FCB61A;}
</style>
<path class="st0" d="M558.99,284.17c-18.92,3.71-43.79,8.15-62.87,11.03c5.28-40.45,17.01-65.29,17.13-65.55l2.04-4.22l-99.91-49.35
	c2.46-9.44,0.97-19.93-4.49-31.22c-0.62-1.3-2.21-3.82-3.12-5.24c-0.98-6.68-5.39-35.88-8.91-44.56
	c-4.15-10.23-13.5-25.78-46.64-43.09c-2.12-3.5-8.29-11.28-20.47-10.3c-11.83,0.94-41.45,5-47.88,7.47
	c-5.12,1.96-20.82,18.84-33.17,44.3c-14.22,6.25-30.96,14.22-33.7,18.21c-3.47,5.05-0.98,15.74,0.48,18.37
	c0.85,1.53,2.65,3.27,7.23,7.49c1.97,1.82,5.19,4.79,6.16,5.97c0.44,1.32,1.57,4.07,5.34,9.57L93.92,223.32l-4.2,2.07l2.02,4.22
	c0.13,0.25,11.82,25.03,17.11,65.37c-18.84-2.87-44.08-7.02-62.86-10.7l0,0v191.16l0,0l0,0c20.78-4.07,48.21-8.99,69.25-12.08
	l185.11,93.74l2.14,1.08L490,463.23c21.19,3.11,48.14,7.85,69,11.93l0,0V284.17H558.99z"/>
<path class="st1" d="M490.66,300.8c4.98-45.52,18.31-73.2,18.31-73.2l-99.39-49.09c3.01-7.48,3.63-17.88-2.97-31.6
	c-0.72-1.47-3.39-5.6-3.39-5.6s-5.12-35.48-8.76-44.49c-3.65-8.99-12.16-24.07-45.69-41.32c0,0-4.49-10.1-16.63-9.12
	c-12.16,0.97-40.93,5.02-46.55,7.17c-3.14,1.21-18.72,16.77-31.36,43.5c0,0-30.63,13.37-33.31,17.26c-1.9,2.75-0.5,11.19,0.72,13.38
	s13.03,11.86,13.62,13.86c0.97,3.31,4.88,8.98,8.08,13.28L96.02,227.61c0,0,13.29,27.64,18.28,73.04c-21-3.09-42-6.7-62.98-10.81
	l-0.58-0.08v179.91c0,0,43.73-8.01,65.31-11.15l186.44,94.38l186.69-94.54c21.69,3.14,43.37,6.83,65.06,11.08V289.93
	C533.05,294.08,511.86,297.7,490.66,300.8z"/>
<g>
	<path class="st0" d="M228.3,123.65c0,0,21.76-13.91,51.16-16.51c32.02-2.83,58.71,2.59,61.07,2.83
		c2.36,0.24,46.92,17.45,64.84,50.7c0,0,0-4.01-1.42-7.08c-1.41-3.07-9.43-13.91-9.43-13.91l-1.11-9.32c0,0-2.9-2.72-4.79-4.36
		c0,0,2.59-0.24,4.01,0.24c0,0-3.77-26.64-7.78-31.12c0,0,1.89,0.24,3.77,0.94c0,0-8.1-17.68-37.88-31.84c0,0-14.8-1.21-15.88-0.7
		c-2.04,0.94-6.84,12.02-8.25,16.27l-4.95,2.12c0,0,5.19-18.16,7.54-20.75c2.36-2.59,4.95-4.48,15.33-2.59c0,0-2.04-5.9-12.18-5.54
		c-2.72,0.1-39.18,5.08-42.8,7.43c-12.54,8.14-29.82,41.73-29.82,41.73c-11.94,4.6-29.95,13.09-31.43,15.09
		C227.35,118.56,227.83,122.47,228.3,123.65z"/>
	<path class="st0" d="M376.39,207.43c0,0-0.73-1.7-4.38,0.73c-3.65,2.43-6,5.71-6,5.71s-1.53,3.04,1.13,5.96
		c2.68,2.92,5.1,2.43,5.1,2.43s8.22-3.04,12.11-8.63c1.41-2.02,4.51-5.33,5.23-8.63c0.6-2.79,3.41-11.47,3.57-14.09
		c0,0-4.38-9.24-4.87-9.97c-0.49-0.73-5.34-0.49-8.26,0.49l-0.97,3.89c0,0,2.89-0.33,4.58-0.6c0.73-0.13,3.31,2.06,3.45,5.47
		c0.08,1.95-1.7,2.43-1.7,2.43l-5.83,0.24l1.7,8.26C381.26,201.11,378.1,206.94,376.39,207.43z"/>
	<path class="st0" d="M263.81,239.27c0,0,6.36,2.19,8.31,1.46s5.6-5.6,8.26-6.07c2.68-0.49,20.91-0.24,23.34,0.24
		c0,0,3.89-9.48,0.97-13.62c-2.92-4.14-9.76-5.47-17.05-5.71c0,0-10.65-3.52-11.87-4.5c-1.22-0.97-0.65-3.77-0.65-3.77
		s8.68,0.36,14.51-0.13s11.18-0.97,12.89-1.95c1.7-0.97,3.65-5.83,3.65-5.83l-14.09-6.32c0,0-4.61,1.22-5.6,1.7
		c-0.97,0.49-4.87-0.73-4.87-0.73s-3.68,1.09-7.82,8.88l-7.49,1.09c0,0,8.75-12.89,9.97-14.59c1.22-1.7,2.39-2.92,4.38-2.43
		c2.4,0.59,3.89,1.46,3.89,1.46s4.87-2.92,5.83-3.16c0.97-0.24,3.65,0.24,5.6,0.73l-7.29-6.8c0,0-2.43,0.73-3.89,0.49l-0.73,5.6
		c0,0-2.69-4.01-5.51-6.32c-2.28-1.87-3.8-1.58-5.1-3.65c0,0-1.7-5.83,0.4-7.05c0.94-0.54,1.95-1.22,5.83-0.49
		c3.89,0.73,7.86-1.09,9.56-0.6c1.7,0.49,6.49,2.31,8.42,4.01l3.65-3.65l-3.16-4.61l-4.87,0.49l4.87-18.23l0.69-7.9
		c0,0-2.92-2.06-8.26,0.13c0,0-5.47,8.75-6.2,9.48c-0.73,0.73-5.91,2.19-5.91,2.19l-3.41,4.38c0,0-10.94,1.7-16.53,4.61l1.53-5.34
		l-7.05,2.68l-0.33,5.34c0,0-1.46,33.29-1.22,35c0.24,1.7,5.1,21.39,6.8,29.17C259.96,232.7,260.66,233.92,263.81,239.27z"/>
	<path class="st0" d="M307.13,148.24l6.07,30.39l5.83,7.29l5.83,0.73l-6.07,26.49c0,0,26.25-13.86,32.82-16.04
		c0,0-11.67-9.24-14.59-10.21l17.26-8.26l2.43-6.8c0,0-3.16-13.37-3.41-19.93l-8.26-5.1l1.7,8.75l-4.14,2.43l-4.87-4.38
		c0,0-14.62-4.5-20.66-3.65c-0.41,0.06,0,4.61,0,4.61L307.13,148.24z"/>
	<path class="st0" d="M265.31,247.78l-5.51,26.25c0,0-6.64,3.16-9.32,5.6c0,0,23.19,20.52,28.04,28.3l18.67,0.47
		c12.18-2.04,29.74-6.87,42.74-8.59l13.86-41.32l-25.29,27.95c0,0-20.42-3.16-21.88-4.87l15.8-5.83l13.37-21.64l-3.41-2.68
		l-32.09,17.01l-15.08-2.19C285.25,266.25,275.28,260.66,265.31,247.78z"/>
</g>
<g>
	<path class="st2" d="M246.89,192.67c0.04-1.51,0.08-3.34,0.13-5.36l-114.48,56.54l0.65,1.96c4.63,13.84,9.88,33.99,12.37,59.03
		c1.61,0.2,3.21,0.38,4.82,0.57c-2.39-24.81-7.44-44.95-12.05-59.13L246.89,192.67z"/>
	<path class="st2" d="M393.6,204.92c-0.25,0.8-0.49,1.51-0.72,2.02c-0.33,0.77-0.72,1.56-1.13,2.35l74.88,36.99
		c-4.61,14.22-9.68,34.41-12.06,59.27c1.61-0.19,3.21-0.36,4.82-0.57c2.49-25.12,7.76-45.32,12.4-59.18l0.65-1.96L393.6,204.92z"/>
</g>
<g>
	<path class="st0" d="M252.99,458.75h1.3l4.38,4.1l4.49-4.1h1.26v9.04h-3.72v-2.93l-2.31,2.54l-2.25-2.46v2.87h-3.13L252.99,458.75
		L252.99,458.75z"/>
	<path class="st0" d="M265.86,467.8l4.5-8.59c0.15-0.3,0.44-0.52,0.86-0.62c0.13-0.03,0.28-0.05,0.45-0.05s0.36,0.05,0.58,0.15
		c0.21,0.1,0.38,0.25,0.49,0.48l4.83,8.61h-4.59l-0.35-0.89h-2.45l-0.3,0.89h-4.01V467.8z M270.44,465.11h1.82l-0.87-2.45
		L270.44,465.11z"/>
	<path class="st0" d="M279,458.75c2.29-0.18,3.78-0.25,4.49-0.25c0.7,0,1.26,0.06,1.66,0.2c0.4,0.13,0.77,0.31,1.09,0.54
		c0.63,0.44,1.09,1.03,1.41,1.76c0.31,0.73,0.48,1.47,0.48,2.23c0,0.75-0.13,1.41-0.36,1.96c-0.24,0.57-0.58,1.03-1.01,1.42
		c-0.88,0.79-2.01,1.19-3.42,1.19H279V458.75z M282.52,461.63v3.45c0.2-0.18,0.41-0.34,0.65-0.5c0.89-0.64,1.35-1.32,1.35-2.02
		c0-0.34-0.1-0.67-0.3-0.96c-0.2-0.29-0.47-0.44-0.79-0.44C283.09,461.15,282.8,461.32,282.52,461.63z"/>
	<path class="st0" d="M289.83,458.75h6.51v2.6h-2.99v0.74h2.98v2.23h-2.98v0.86h3.19v2.62h-6.71V458.75z"/>
	<path class="st0" d="M305.47,467.8h-3.52v-9.04h3.52V467.8z"/>
	<path class="st0" d="M307.43,458.75h0.92l4.94,3.52v-3.52h3.19v9.04h-1.22l-4.65-3.11v3.11h-3.18V458.75z"/>
	<path class="st0" d="M326.33,468.02c-3.01,0-4.5-1.28-4.5-3.82v-5.43h3.57v5.33c0,0.54,0.18,0.88,0.54,1.04
		c0.13,0.06,0.28,0.09,0.45,0.09c0.49,0,0.8-0.24,0.93-0.7c0.04-0.14,0.06-0.29,0.06-0.45v-5.31h3.13v5.43
		C330.5,466.75,329.11,468.02,326.33,468.02z"/>
	<path class="st0" d="M335.62,468.02c-1.7,0-2.82-0.21-3.37-0.63v-2.59c0.01,0,0.08,0.03,0.16,0.05c0.1,0.03,0.21,0.06,0.36,0.11
		c0.34,0.1,0.7,0.2,1.08,0.3c0.38,0.09,0.68,0.14,0.92,0.14c0.38,0,0.57-0.11,0.57-0.34c0-0.18-0.16-0.36-0.49-0.57
		c-0.15-0.09-0.31-0.19-0.5-0.29c-0.19-0.1-0.38-0.21-0.57-0.33c-0.47-0.29-0.85-0.63-1.13-1.02c-0.29-0.39-0.43-0.88-0.43-1.47
		c0-1.3,0.68-2.16,2.05-2.62c0.55-0.18,1.19-0.28,1.92-0.28s1.48,0.09,2.28,0.25c0.16,0.04,0.28,0.06,0.33,0.08v2.6
		c-1.03-0.21-1.76-0.33-2.21-0.33c-0.18,0-0.3,0.03-0.39,0.09c-0.09,0.06-0.13,0.13-0.13,0.2s0.04,0.15,0.11,0.24
		c0.08,0.08,0.2,0.16,0.39,0.24s0.4,0.18,0.65,0.29c0.25,0.11,0.48,0.24,0.69,0.36c0.97,0.59,1.45,1.4,1.45,2.43
		c0,0.97-0.33,1.72-0.98,2.26C337.71,467.75,336.79,468.02,335.62,468.02z"/>
	<path class="st0" d="M340.3,467.8l4.5-8.59c0.15-0.3,0.44-0.52,0.85-0.62c0.13-0.03,0.28-0.05,0.45-0.05
		c0.18,0,0.36,0.05,0.58,0.15c0.21,0.1,0.38,0.25,0.49,0.48l4.83,8.61h-4.59l-0.35-0.89h-2.45l-0.3,0.89h-4.01V467.8z
		 M344.87,465.11h1.82l-0.87-2.45L344.87,465.11z"/>
</g>
<g>
	<path class="st0" d="M124.4,332.1c-2.1,30.81-4.2,62.09-6.29,93.85c-4.24,0.49-8.46,0.99-12.7,1.52
		c-1.28-17.78-2.55-35.75-3.83-53.88c-1.21,18.11-2.41,36.38-3.62,54.81c-3.65,0.47-7.29,0.94-10.94,1.45
		c-2.02-33.86-4.05-68.26-6.06-103.23c3.22,0.45,6.44,0.89,9.67,1.32c0.89,15.72,1.79,31.32,2.68,46.82
		c1.23-15.48,2.46-30.81,3.68-45.98c4.01,0.52,8.02,1.03,12.05,1.52c0.98,15,1.95,29.87,2.93,44.66
		c1.19-14.76,2.39-29.38,3.58-43.88C118.49,331.43,121.44,331.77,124.4,332.1z"/>
	<path class="st0" d="M152.57,407.5c0,5.07-1.13,9.05-3.38,12.02c-2.26,2.97-5.21,4.66-8.83,5.03c-3.63,0.38-6.58-0.68-8.86-3.24
		c-2.28-2.57-3.42-6.6-3.42-12.06c0-19.83,0-39.66,0-59.49c0-5.9,0.88-10.17,2.65-12.79c2-3.04,5.23-4.27,9.69-3.81
		c4.09,0.43,7.14,2.21,9.14,5.32c2,3.11,3.01,7.33,3.01,12.74C152.57,369.98,152.57,388.74,152.57,407.5z M142.17,409.3
		c0-20.38,0-40.75,0-61.13c0-0.94-0.15-1.63-0.44-2.09c-0.29-0.45-0.75-0.69-1.38-0.74c-0.63-0.05-1.09,0.13-1.41,0.54
		c-0.31,0.4-0.48,1.08-0.48,2.04c0,20.55,0,41.09,0,61.64c0,0.87,0.16,1.52,0.48,1.97c0.31,0.45,0.78,0.65,1.41,0.6
		c0.63-0.05,1.09-0.31,1.38-0.8C142.04,410.83,142.17,410.16,142.17,409.3z"/>
	<path class="st0" d="M183.66,419.75c-3.57,0.26-7.13,0.54-10.69,0.83c-0.6-1.14-1.03-2.89-1.26-5.23c-0.24-2.34-0.35-5.68-0.35-10
		c0-6.88,0-13.77,0-20.65c0-2.07-0.3-3.33-0.91-3.77c-0.6-0.44-1.45-0.65-2.51-0.65c0,13.58,0,27.16,0,40.73
		c-3.56,0.3-7.13,0.6-10.69,0.93c0-28.82,0-57.65,0-86.47c4.43,0.4,8.84,0.79,13.27,1.16c3.53,0.29,6.3,1.86,8.27,4.66
		c1.97,2.82,2.97,6.37,2.97,10.75c0,3.28,0,6.56,0,9.85c0,2.73-0.25,4.84-0.77,6.31c-0.93,2.72-2.87,4.89-5.83,6.53
		c2.73,1.22,4.6,3.08,5.62,5.6c0.64,1.66,0.97,3.92,0.97,6.84c0,5.93,0,11.87,0,17.8c0.09,2.9,0.19,5.1,0.28,6.59
		C182.37,416.11,182.91,418.87,183.66,419.75z M171.36,365.51c0-4.58,0-9.15,0-13.73c0-2.07-0.3-3.34-0.91-3.82
		c-0.6-0.48-1.45-0.74-2.51-0.82c0,7.57,0,15.15,0,22.72c1.12,0.03,1.85-0.09,2.19-0.33C170.94,368.91,171.36,367.58,171.36,365.51z
		"/>
	<path class="st0" d="M214.28,417.79c-3.96,0.21-7.92,0.45-11.89,0.69c-1.36-9.77-2.7-19.59-4.06-29.48c0,9.92,0,19.83,0,29.75
		c-3.57,0.23-7.13,0.48-10.7,0.73c0-27.18,0-54.36,0-81.54c3.57,0.25,7.13,0.5,10.7,0.73c0,8.93,0,17.84,0,26.77
		c1.58-8.89,3.17-17.7,4.75-26.47c3.31,0.2,6.63,0.4,9.93,0.59c-2.19,11.79-4.39,23.7-6.58,35.71
		C209.07,389.6,211.67,403.77,214.28,417.79z"/>
	<path class="st0" d="M255.79,416.05c-3.22,0.09-6.44,0.19-9.66,0.3c0-14.09,0-28.19,0-42.28c-1.86,14.08-3.72,28.24-5.58,42.49
		c-2.46,0.09-4.93,0.19-7.39,0.3c-2.14-14.2-4.27-28.48-6.41-42.89c0,14.4,0,28.78,0,43.18c-2.82,0.14-5.65,0.28-8.46,0.41
		c0-25.91,0-51.83,0-77.74c4.64,0.24,9.28,0.47,13.93,0.67c1.62,13.28,3.24,26.48,4.87,39.62c1.46-13.14,2.92-26.22,4.38-39.24
		c4.78,0.18,9.57,0.34,14.35,0.48C255.79,366.26,255.79,391.16,255.79,416.05z"/>
	<path class="st0" d="M289.69,415.45c-3.52,0.03-7.05,0.06-10.57,0.11c-0.62-6.59-1.24-13.18-1.86-19.78
		c-1.65,0.01-3.31,0.03-4.95,0.04c-0.62,6.63-1.24,13.25-1.86,19.89c-3.52,0.06-7.05,0.15-10.57,0.24
		c2.69-24.9,5.38-49.64,8.07-74.28c4.56,0.1,9.13,0.18,13.69,0.23C284.31,366.47,287,390.98,289.69,415.45z M276.31,385.66
		c-0.53-7.38-1.06-14.76-1.58-22.14c-0.5,7.38-1.01,14.76-1.51,22.15C274.26,385.67,275.28,385.66,276.31,385.66z"/>
	<path class="st0" d="M321.13,415.52c-3.68-0.05-7.38-0.08-11.06-0.1c-2.45-13.06-4.9-26.12-7.36-39.17c0,13.05,0,26.09,0,39.14
		c-2.99,0-5.97,0-8.96,0.01c0-24.47,0-48.95,0-73.42c4.09,0.03,8.17,0.03,12.26,0.01c2.05,11.15,4.11,22.32,6.16,33.48
		c0-11.17,0-22.34,0-33.51c2.99-0.03,5.97-0.05,8.96-0.09C321.13,366.44,321.13,390.98,321.13,415.52z"/>
	<path class="st0" d="M334.16,349.09c0,2.89-0.59,5.41-1.75,7.53c-0.79,1.42-2.07,3.02-3.85,4.79c-0.65-0.8-1.31-1.61-1.96-2.41
		c0.55-0.85,0.94-1.52,1.17-2.01c0.78-1.56,1.22-3.03,1.31-4.45c-1.3,0.01-2.59,0.03-3.89,0.05c0-3.58,0-7.17,0-10.74
		c2.99-0.05,5.97-0.1,8.96-0.16C334.16,344.16,334.16,346.62,334.16,349.09z"/>
	<path class="st0" d="M362.65,402.28c0,4.98-0.84,8.64-2.51,10.95c-1.96,2.67-5.28,3.91-9.95,3.76c-4.44-0.14-7.68-1.82-9.73-5.05
		c-1.53-2.36-2.31-5.28-2.31-8.74c0-5.66,0-11.32,0-16.96c3.24,0.01,6.49,0.04,9.73,0.05c0,5.76,0,11.52,0,17.28
		c0,0.79,0.2,1.42,0.62,1.89c0.41,0.48,0.91,0.72,1.48,0.73c0.68,0.01,1.18-0.19,1.52-0.6c0.34-0.43,0.5-1.07,0.5-1.92
		c0-2.98,0-5.95,0-8.93c0-2.07-0.3-3.73-0.92-4.95c-1.65-2.59-3.41-5.43-5.28-8.5c-3.09-4.98-4.83-7.8-5.21-8.5
		c-1.65-3.18-2.46-6.14-2.46-8.9c0-2.79,0-5.58,0-8.37c0-4.74,0.89-8.25,2.67-10.55c2.05-2.67,5.32-4.06,9.81-4.2
		c3.87-0.13,6.76,1.09,8.68,3.7c1.63,2.25,2.45,5.36,2.45,9.32c0,4.36,0,8.71,0,13.08c-3.24,0.04-6.49,0.08-9.73,0.11
		c0-4.64,0-9.28,0-13.91c0-0.72-0.16-1.27-0.48-1.66c-0.31-0.39-0.72-0.58-1.21-0.57c-0.59,0.01-1.02,0.2-1.32,0.57
		c-0.29,0.36-0.44,0.94-0.44,1.74c0,2.33,0,4.66,0,6.99c0,2.44,0.7,4.79,2.11,7.08c1.97,3.06,3.82,5.93,5.56,8.65
		c2.25,3.58,3.71,6.1,4.36,7.54c1.36,2.95,2.04,6.07,2.04,9.32C362.65,395.87,362.65,399.08,362.65,402.28z"/>
	<path class="st0" d="M408.76,418.99c-3.57-0.24-7.13-0.47-10.7-0.68c-0.6-1.17-1.03-2.87-1.26-5.1c-0.24-2.24-0.35-5.38-0.35-9.44
		c0-6.48,0-12.95,0-19.41c0-1.96-0.3-3.14-0.91-3.56c-0.6-0.41-1.45-0.63-2.51-0.63c0,12.62,0,25.24,0,37.86
		c-3.57-0.2-7.14-0.39-10.7-0.58c0-25.83,0-51.65,0-77.48c4.43-0.23,8.86-0.47,13.29-0.73c3.55-0.21,6.31,0.89,8.29,3.36
		c1.99,2.46,2.97,5.83,2.97,10.1c0,3.19,0,6.4,0,9.59c0,2.67-0.25,4.73-0.77,6.19c-0.93,2.68-2.87,4.83-5.83,6.43
		c2.73,1.12,4.61,2.9,5.63,5.36c0.64,1.61,0.97,3.83,0.97,6.66c0,5.78,0,11.57,0,17.35c0.09,2.84,0.19,4.99,0.28,6.45
		C407.48,415.26,408.02,418.01,408.76,418.99z M396.45,366.3c0-4.3,0-8.61,0-12.91c0-1.95-0.3-3.12-0.91-3.5
		c-0.6-0.39-1.45-0.55-2.51-0.5c0,7.04,0,14.08,0,21.12c1.12-0.01,1.85-0.14,2.19-0.36C396.05,369.53,396.45,368.25,396.45,366.3z"
		/>
	<path class="st0" d="M433.64,420.86c-7-0.58-14.02-1.12-21.04-1.6c0-27.05,0-54.08,0-81.12c6.97-0.49,13.93-1.02,20.9-1.6
		c0,3.57,0,7.14,0,10.73c-3.39,0.21-6.8,0.41-10.2,0.62c0,7.44,0,14.89,0,22.33c3.08-0.05,6.15-0.1,9.23-0.15c0,3.45,0,6.89,0,10.34
		c-3.07-0.01-6.15-0.01-9.23-0.03c0,9.72,0,19.45,0,29.17c3.45,0.2,6.89,0.4,10.34,0.62C433.64,413.7,433.64,417.28,433.64,420.86z"
		/>
	<path class="st0" d="M458.01,423.06c-6.74-0.67-13.49-1.28-20.24-1.86c0-28.34,0-56.68,0-85.03c3.58-0.31,7.17-0.63,10.75-0.97
		c0,25.3,0,50.6,0,75.89c3.17,0.21,6.32,0.44,9.49,0.67C458.01,415.54,458.01,419.3,458.01,423.06z"/>
	<path class="st0" d="M472.72,424.56c-3.56-0.38-7.12-0.75-10.67-1.11c0-29.86,0-59.71,0-89.57c3.56-0.36,7.12-0.73,10.67-1.12
		C472.72,363.37,472.72,393.97,472.72,424.56z"/>
	<path class="st0" d="M498.09,427.51c-6.99-0.87-13.98-1.68-20.97-2.45c0-30.92,0-61.84,0-92.77c6.95-0.77,13.89-1.6,20.83-2.45
		c0,4.14,0,8.27,0,12.41c-3.38,0.31-6.78,0.63-10.17,0.92c0,8.56,0,17.14,0,25.7c3.07-0.08,6.14-0.15,9.19-0.24
		c0,3.99,0,7.98,0,11.97c-3.07-0.01-6.12-0.03-9.19-0.04c0,11.2,0,22.39,0,33.6c3.43,0.3,6.88,0.6,10.31,0.92
		C498.09,419.22,498.09,423.36,498.09,427.51z"/>
	<path class="st0" d="M522.23,339.84c-3.13,0.33-6.26,0.65-9.39,0.97c0,9.13,0,18.27,0,27.4c2.8-0.08,5.61-0.16,8.41-0.24
		c0,4.25,0,8.5,0,12.75c-2.8-0.01-5.61-0.03-8.41-0.04c0,16.25,0,32.48,0,48.72c-3.55-0.48-7.09-0.93-10.65-1.38
		c0-32.9,0-65.81,0-98.71c6.69-0.85,13.37-1.75,20.03-2.68C522.23,331.03,522.23,335.43,522.23,339.84z"/>
</g>
<path class="st2" d="M59.05,458.88v-159.8l2.8,0.53c38.05,7.1,76.57,12.6,114.51,16.32c42.03,4.12,84.66,6.22,126.69,6.22
	c41.93,0,84.46-2.09,126.4-6.19c37.65-3.68,75.89-9.12,113.65-16.13l2.8-0.53v159.37l0,0c-37.77-7.02-78.81-12.98-116.46-16.66
	c-41.93-4.11-84.47-6.19-126.4-6.19c-42.03,0-84.66,2.09-126.69,6.22C138.44,445.76,97.11,451.77,59.05,458.88L59.05,458.88z
	 M63.8,304.79v148.38c37.27-6.88,74.98-12.21,112.11-15.86c42.18-4.14,84.96-6.24,127.16-6.24c42.1,0,84.77,2.09,126.87,6.21
	c36.85,3.61,74.26,8.88,111.25,15.68V305c-36.99,6.79-74.4,12.07-111.25,15.68c-42.1,4.12-84.78,6.21-126.87,6.21
	c-42.18,0-84.97-2.1-127.16-6.24C138.77,317,101.07,311.67,63.8,304.79z"/>
<g>
	<path class="st2" d="M424.32,450.59l-121.84,61.7l-121.66-61.61c-2.93,0.28-5.86,0.57-8.78,0.87l129.37,65.51l1.07,0.54
		l130.64-66.15C430.2,451.16,427.25,450.87,424.32,450.59z"/>
</g>
</svg>
